<svg width="73" height="16" viewBox="0 0 73 16" fill="none" xmlns="http://www.w3.org/2000/svg">
<path d="M5.84359 14.9999H0.914612V0.454479H5.94302C7.38715 0.454479 8.62768 0.745673 9.66461 1.32806C10.7063 1.90571 11.5065 2.73668 12.0652 3.82096C12.6239 4.90524 12.9032 6.20259 12.9032 7.713C12.9032 9.22815 12.6215 10.5302 12.0581 11.6193C11.4994 12.7083 10.6921 13.544 9.6362 14.1264C8.58507 14.7087 7.32086 14.9999 5.84359 14.9999ZM3.54956 12.7201H5.71575C6.72901 12.7201 7.57418 12.5354 8.25126 12.1661C8.92834 11.7921 9.43734 11.2357 9.77825 10.4971C10.1192 9.75372 10.2896 8.82569 10.2896 7.713C10.2896 6.60031 10.1192 5.67702 9.77825 4.94312C9.43734 4.20448 8.93308 3.65287 8.26546 3.28829C7.60259 2.91897 6.77872 2.73431 5.79387 2.73431H3.54956V12.7201Z" fill="#101828"/>
<path d="M20.1227 15.213C19.029 15.213 18.0844 14.9857 17.2889 14.5312C16.4982 14.0719 15.8898 13.4232 15.4636 12.5852C15.0375 11.7424 14.8244 10.7504 14.8244 9.60931C14.8244 8.48715 15.0375 7.5023 15.4636 6.65476C15.8945 5.80249 16.4958 5.13961 17.2676 4.66613C18.0394 4.18791 18.9461 3.9488 19.9878 3.9488C20.6601 3.9488 21.2946 4.0577 21.8912 4.2755C22.4925 4.48857 23.0228 4.82001 23.4821 5.26982C23.9461 5.71963 24.3107 6.29255 24.5758 6.98857C24.841 7.67986 24.9736 8.50372 24.9736 9.46016V10.2485H16.0318V8.51556H22.5091C22.5043 8.02313 22.3978 7.58516 22.1895 7.20164C21.9811 6.81338 21.6899 6.50798 21.3159 6.28545C20.9466 6.06291 20.5157 5.95164 20.0233 5.95164C19.4977 5.95164 19.0361 6.07948 18.6383 6.33516C18.2406 6.58611 17.9305 6.91755 17.7079 7.32948C17.4901 7.73668 17.3789 8.18412 17.3741 8.67181V10.1846C17.3741 10.8191 17.4901 11.3636 17.7221 11.8181C17.9541 12.2679 18.2785 12.6136 18.6952 12.855C19.1118 13.0918 19.5995 13.2102 20.1582 13.2102C20.5323 13.2102 20.8708 13.1581 21.1738 13.0539C21.4769 12.945 21.7397 12.7864 21.9622 12.5781C22.1847 12.3697 22.3528 12.1117 22.4665 11.8039L24.867 12.0738C24.7155 12.7083 24.4267 13.2622 24.0005 13.7357C23.5791 14.2045 23.0394 14.5691 22.3812 14.8295C21.7231 15.0852 20.9702 15.213 20.1227 15.213Z" fill="#101828"/>
<path d="M29.7197 0.454479V14.9999H27.1486V0.454479H29.7197Z" fill="#101828"/>
<path d="M37.122 15.213C36.0567 15.213 35.1334 14.9786 34.3521 14.5099C33.5709 14.0411 32.9648 13.3854 32.5339 12.5425C32.1078 11.6997 31.8947 10.7149 31.8947 9.588C31.8947 8.46111 32.1078 7.47389 32.5339 6.62635C32.9648 5.77882 33.5709 5.12067 34.3521 4.65192C35.1334 4.18317 36.0567 3.9488 37.122 3.9488C38.1873 3.9488 39.1106 4.18317 39.8919 4.65192C40.6731 5.12067 41.2768 5.77882 41.703 6.62635C42.1338 7.47389 42.3493 8.46111 42.3493 9.588C42.3493 10.7149 42.1338 11.6997 41.703 12.5425C41.2768 13.3854 40.6731 14.0411 39.8919 14.5099C39.1106 14.9786 38.1873 15.213 37.122 15.213ZM37.1362 13.1533C37.7139 13.1533 38.1968 12.9947 38.5851 12.6775C38.9733 12.3555 39.2621 11.9247 39.4515 11.3849C39.6457 10.8451 39.7427 10.2438 39.7427 9.5809C39.7427 8.91329 39.6457 8.30959 39.4515 7.76982C39.2621 7.22531 38.9733 6.79207 38.5851 6.4701C38.1968 6.14813 37.7139 5.98715 37.1362 5.98715C36.5443 5.98715 36.0519 6.14813 35.6589 6.4701C35.2707 6.79207 34.9795 7.22531 34.7854 7.76982C34.596 8.30959 34.5013 8.91329 34.5013 9.5809C34.5013 10.2438 34.596 10.8451 34.7854 11.3849C34.9795 11.9247 35.2707 12.3555 35.6589 12.6775C36.0519 12.9947 36.5443 13.1533 37.1362 13.1533Z" fill="#101828"/>
<path d="M49.464 14.9999V13.0965L54.5137 8.14624C54.9966 7.65855 55.3991 7.22531 55.7211 6.84653C56.043 6.46774 56.2845 6.10079 56.4455 5.74567C56.6065 5.39056 56.687 5.01177 56.687 4.60931C56.687 4.15003 56.5828 3.75704 56.3745 3.43033C56.1662 3.09889 55.8797 2.84321 55.5151 2.66329C55.1505 2.48336 54.7362 2.3934 54.2722 2.3934C53.794 2.3934 53.375 2.49283 53.0151 2.6917C52.6553 2.88582 52.3759 3.16281 52.177 3.52266C51.9829 3.88251 51.8858 4.31101 51.8858 4.80817H49.3787C49.3787 3.88488 49.5894 3.08232 50.0108 2.4005C50.4323 1.71868 51.0123 1.19075 51.7509 0.816695C52.4943 0.442642 53.3465 0.255615 54.3077 0.255615C55.2831 0.255615 56.1401 0.437907 56.8787 0.80249C57.6174 1.16707 58.1903 1.6666 58.5975 2.30107C59.0094 2.93554 59.2154 3.65997 59.2154 4.47437C59.2154 5.01887 59.1112 5.55391 58.9029 6.07948C58.6946 6.60505 58.3276 7.18743 57.802 7.82664C57.2812 8.46584 56.5497 9.23999 55.6074 10.1491L53.1003 12.6988V12.7982H59.4356V14.9999H49.464Z" fill="#101828"/>
<path d="M61.3106 12.3011V10.2059L67.4824 0.454479H69.2296V3.43743H68.1643L64.0094 10.0212V10.1349H72.6245V12.3011H61.3106ZM68.2495 14.9999V11.6619L68.2779 10.7244V0.454479H70.7637V14.9999H68.2495Z" fill="#101828"/>
</svg>
