<svg width="121" height="38" viewBox="0 0 121 38" fill="none" xmlns="http://www.w3.org/2000/svg">
<g filter="url(#filter0_dd_5_78079)">
<rect x="3" y="2" width="32" height="32" rx="8" fill="#3D81DB"/>
<path fill-rule="evenodd" clip-rule="evenodd" d="M10 13C10 11.3431 11.3431 10 13 10H17C18.6569 10 20 11.3431 20 13V17H25C26.6569 17 28 18.3431 28 20V23C28 24.6569 26.6569 26 25 26H13C11.3431 26 10 24.6569 10 23V13ZM18 17V13C18 12.4477 17.5523 12 17 12H13C12.4477 12 12 12.4477 12 13V17H18ZM12 19H18V24H13C12.4477 24 12 23.5523 12 23V19ZM20 24V19H25C25.5523 19 26 19.4477 26 20V23C26 23.5523 25.5523 24 25 24H20Z" fill="white"/>
<path fill-rule="evenodd" clip-rule="evenodd" d="M22.8042 7.44426C24.1093 6.4236 25.9948 6.65422 27.0154 7.95937L29.2385 10.802C30.2591 12.1072 30.0285 13.9926 28.7234 15.0133L27.3791 16.0645C26.0739 17.0852 24.1885 16.8546 23.1678 15.5494L20.9448 12.7068C19.9241 11.4016 20.1548 9.51618 21.4599 8.49552L22.8042 7.44426ZM25.44 9.19142C25.0998 8.75637 24.4713 8.6795 24.0362 9.01972L22.692 10.071C22.2569 10.4112 22.18 11.0397 22.5203 11.4747L24.7433 14.3174C25.0835 14.7524 25.712 14.8293 26.147 14.4891L27.4913 13.4378C27.9264 13.0976 28.0032 12.4691 27.663 12.0341L25.44 9.19142Z" fill="white"/>
</g>
<path d="M49.8436 24.9999H44.9146V10.4545H49.943C51.3871 10.4545 52.6277 10.7457 53.6646 11.3281C54.7063 11.9057 55.5065 12.7367 56.0652 13.821C56.6239 14.9052 56.9032 16.2026 56.9032 17.713C56.9032 19.2282 56.6215 20.5302 56.0581 21.6193C55.4994 22.7083 54.6921 23.544 53.6362 24.1264C52.5851 24.7087 51.3209 24.9999 49.8436 24.9999ZM47.5496 22.7201H49.7157C50.729 22.7201 51.5742 22.5354 52.2513 22.1661C52.9283 21.7921 53.4373 21.2357 53.7782 20.4971C54.1192 19.7537 54.2896 18.8257 54.2896 17.713C54.2896 16.6003 54.1192 15.677 53.7782 14.9431C53.4373 14.2045 52.9331 13.6529 52.2655 13.2883C51.6026 12.919 50.7787 12.7343 49.7939 12.7343H47.5496V22.7201Z" fill="#101828"/>
<path d="M64.1227 25.213C63.029 25.213 62.0844 24.9857 61.2889 24.5312C60.4982 24.0719 59.8898 23.4232 59.4636 22.5852C59.0375 21.7424 58.8244 20.7504 58.8244 19.6093C58.8244 18.4872 59.0375 17.5023 59.4636 16.6548C59.8945 15.8025 60.4958 15.1396 61.2676 14.6661C62.0394 14.1879 62.9461 13.9488 63.9878 13.9488C64.6601 13.9488 65.2946 14.0577 65.8912 14.2755C66.4925 14.4886 67.0228 14.82 67.4821 15.2698C67.9461 15.7196 68.3107 16.2925 68.5758 16.9886C68.841 17.6799 68.9736 18.5037 68.9736 19.4602V20.2485H60.0318V18.5156H66.5091C66.5043 18.0231 66.3978 17.5852 66.1895 17.2016C65.9811 16.8134 65.6899 16.508 65.3159 16.2854C64.9466 16.0629 64.5157 15.9516 64.0233 15.9516C63.4977 15.9516 63.0361 16.0795 62.6383 16.3352C62.2406 16.5861 61.9305 16.9175 61.7079 17.3295C61.4901 17.7367 61.3789 18.1841 61.3741 18.6718V20.1846C61.3741 20.8191 61.4901 21.3636 61.7221 21.8181C61.9541 22.2679 62.2785 22.6136 62.6952 22.855C63.1118 23.0918 63.5995 23.2102 64.1582 23.2102C64.5323 23.2102 64.8708 23.1581 65.1738 23.0539C65.4769 22.945 65.7397 22.7864 65.9622 22.5781C66.1847 22.3697 66.3528 22.1117 66.4665 21.8039L68.867 22.0738C68.7155 22.7083 68.4267 23.2622 68.0005 23.7357C67.5791 24.2045 67.0394 24.5691 66.3812 24.8295C65.7231 25.0852 64.9702 25.213 64.1227 25.213Z" fill="#101828"/>
<path d="M73.7197 10.4545V24.9999H71.1486V10.4545H73.7197Z" fill="#101828"/>
<path d="M81.122 25.213C80.0567 25.213 79.1334 24.9786 78.3521 24.5099C77.5709 24.0411 76.9648 23.3854 76.5339 22.5425C76.1078 21.6997 75.8947 20.7149 75.8947 19.588C75.8947 18.4611 76.1078 17.4739 76.5339 16.6264C76.9648 15.7788 77.5709 15.1207 78.3521 14.6519C79.1334 14.1832 80.0567 13.9488 81.122 13.9488C82.1873 13.9488 83.1106 14.1832 83.8919 14.6519C84.6731 15.1207 85.2768 15.7788 85.703 16.6264C86.1338 17.4739 86.3493 18.4611 86.3493 19.588C86.3493 20.7149 86.1338 21.6997 85.703 22.5425C85.2768 23.3854 84.6731 24.0411 83.8919 24.5099C83.1106 24.9786 82.1873 25.213 81.122 25.213ZM81.1362 23.1533C81.7139 23.1533 82.1968 22.9947 82.5851 22.6775C82.9733 22.3555 83.2622 21.9246 83.4515 21.3849C83.6457 20.8451 83.7427 20.2438 83.7427 19.5809C83.7427 18.9133 83.6457 18.3096 83.4515 17.7698C83.2622 17.2253 82.9733 16.7921 82.5851 16.4701C82.1968 16.1481 81.7139 15.9872 81.1362 15.9872C80.5443 15.9872 80.0519 16.1481 79.6589 16.4701C79.2707 16.7921 78.9795 17.2253 78.7854 17.7698C78.596 18.3096 78.5013 18.9133 78.5013 19.5809C78.5013 20.2438 78.596 20.8451 78.7854 21.3849C78.9795 21.9246 79.2707 22.3555 79.6589 22.6775C80.0519 22.9947 80.5443 23.1533 81.1362 23.1533Z" fill="#101828"/>
<path d="M93.464 24.9999V23.0965L98.5137 18.1462C98.9966 17.6586 99.3991 17.2253 99.7211 16.8465C100.043 16.4677 100.285 16.1008 100.446 15.7457C100.606 15.3906 100.687 15.0118 100.687 14.6093C100.687 14.15 100.583 13.757 100.374 13.4303C100.166 13.0989 99.8797 12.8432 99.5151 12.6633C99.1505 12.4834 98.7362 12.3934 98.2722 12.3934C97.794 12.3934 97.375 12.4928 97.0151 12.6917C96.6553 12.8858 96.3759 13.1628 96.177 13.5227C95.9829 13.8825 95.8858 14.311 95.8858 14.8082H93.3787C93.3787 13.8849 93.5894 13.0823 94.0108 12.4005C94.4323 11.7187 95.0123 11.1907 95.7509 10.8167C96.4943 10.4426 97.3465 10.2556 98.3077 10.2556C99.2831 10.2556 100.14 10.4379 100.879 10.8025C101.617 11.1671 102.19 11.6666 102.597 12.3011C103.009 12.9355 103.215 13.66 103.215 14.4744C103.215 15.0189 103.111 15.5539 102.903 16.0795C102.695 16.605 102.328 17.1874 101.802 17.8266C101.281 18.4658 100.55 19.24 99.6074 20.1491L97.1003 22.6988V22.7982H103.436V24.9999H93.464Z" fill="#101828"/>
<path d="M105.311 22.3011V20.2059L111.482 10.4545H113.23V13.4374H112.164L108.009 20.0212V20.1349H116.624V22.3011H105.311ZM112.249 24.9999V21.6619L112.278 20.7244V10.4545H114.764V24.9999H112.249Z" fill="#101828"/>
<defs>
<filter id="filter0_dd_5_78079" x="0" y="0" width="38" height="38" filterUnits="userSpaceOnUse" color-interpolation-filters="sRGB">
<feFlood flood-opacity="0" result="BackgroundImageFix"/>
<feColorMatrix in="SourceAlpha" type="matrix" values="0 0 0 0 0 0 0 0 0 0 0 0 0 0 0 0 0 0 127 0" result="hardAlpha"/>
<feOffset dy="1"/>
<feGaussianBlur stdDeviation="1.5"/>
<feColorMatrix type="matrix" values="0 0 0 0 0.0627451 0 0 0 0 0.0941176 0 0 0 0 0.156863 0 0 0 0.1 0"/>
<feBlend mode="normal" in2="BackgroundImageFix" result="effect1_dropShadow_5_78079"/>
<feColorMatrix in="SourceAlpha" type="matrix" values="0 0 0 0 0 0 0 0 0 0 0 0 0 0 0 0 0 0 127 0" result="hardAlpha"/>
<feOffset dy="1"/>
<feGaussianBlur stdDeviation="1"/>
<feColorMatrix type="matrix" values="0 0 0 0 0.0627451 0 0 0 0 0.0941176 0 0 0 0 0.156863 0 0 0 0.06 0"/>
<feBlend mode="normal" in2="effect1_dropShadow_5_78079" result="effect2_dropShadow_5_78079"/>
<feBlend mode="normal" in="SourceGraphic" in2="effect2_dropShadow_5_78079" result="shape"/>
</filter>
</defs>
</svg>
