<svg width="56" height="30" viewBox="0 0 56 30" fill="none" xmlns="http://www.w3.org/2000/svg">
<path d="M1.44982 10.733C1.18417 10.8048 1.0272 11.0799 1.09923 11.3475C1.17125 11.6151 1.44498 11.7738 1.71064 11.702L1.44982 10.733ZM54.6577 29.4452C54.8117 29.6752 55.1214 29.7366 55.3496 29.5822C55.5777 29.4279 55.6379 29.1162 55.4839 28.8862L54.6577 29.4452ZM7.40276 0.824343C7.55164 0.591732 7.48467 0.281176 7.25317 0.130696C7.02167 -0.0197841 6.71331 0.0467957 6.56443 0.279406L7.40276 0.824343ZM1.28972 9.44782L0.87056 9.17535L0.870307 9.17574L1.28972 9.44782ZM1.94841 13.1534L2.26625 12.7679L2.2659 12.7676L1.94841 13.1534ZM10.2818 20.7722C10.4938 20.9495 10.808 20.9205 10.9835 20.7076C11.159 20.4947 11.1295 20.1784 10.9175 20.0012L10.2818 20.7722ZM1.58023 11.2175C1.71064 11.702 1.71057 11.7021 1.71057 11.7021C1.71066 11.702 1.71072 11.702 1.71089 11.702C1.71124 11.7019 1.71185 11.7017 1.71271 11.7015C1.71444 11.701 1.71719 11.7003 1.72098 11.6993C1.72854 11.6973 1.74019 11.6942 1.75586 11.6901C1.7872 11.6819 1.83459 11.6697 1.89744 11.654C2.02313 11.6225 2.21062 11.5767 2.45506 11.5205C2.94397 11.4081 3.66052 11.2541 4.56602 11.0887C6.37745 10.7578 8.94262 10.3821 11.9525 10.2036C17.9804 9.84614 25.7517 10.2823 32.8228 13.4174L33.2226 12.4995C25.9481 9.2742 17.9981 8.83993 11.8912 9.20209C8.83372 9.38341 6.22806 9.76501 4.38552 10.1015C3.46403 10.2699 2.73281 10.427 2.2307 10.5424C1.97963 10.6001 1.78579 10.6474 1.65404 10.6804C1.58816 10.697 1.5378 10.7099 1.50356 10.7188C1.48644 10.7233 1.47335 10.7268 1.46437 10.7291C1.45988 10.7303 1.45642 10.7313 1.45399 10.7319C1.45278 10.7322 1.45182 10.7325 1.45113 10.7327C1.45078 10.7328 1.45045 10.7329 1.45028 10.7329C1.45002 10.733 1.44982 10.733 1.58023 11.2175ZM32.8228 13.4174C47.081 19.7391 53.2628 27.3609 54.6577 29.4452L55.4839 28.8862C53.9844 26.6457 47.6555 18.8986 33.2226 12.4995L32.8228 13.4174ZM6.56443 0.279406L0.87056 9.17535L1.70889 9.72028L7.40276 0.824343L6.56443 0.279406ZM0.870307 9.17574C-0.0262821 10.5795 0.322146 12.447 1.63093 13.5392L2.2659 12.7676C1.31566 11.9746 1.10557 10.6648 1.70914 9.71989L0.870307 9.17574ZM1.63058 13.5389L10.2818 20.7722L10.9175 20.0012L2.26625 12.7679L1.63058 13.5389Z" fill="#BBBBBB"/>
</svg>
