<svg width="58" height="28" viewBox="0 0 58 28" fill="none" xmlns="http://www.w3.org/2000/svg">
<path d="M1.91829 25.0654C1.77385 25.3 1.84756 25.6083 2.08292 25.7539C2.31828 25.8995 2.62617 25.8273 2.77061 25.5927L1.91829 25.0654ZM56.4682 4.59967C56.7084 4.73704 57.0135 4.65421 57.1497 4.41467C57.2859 4.17512 57.2015 3.86957 56.9613 3.7322L56.4682 4.59967ZM2.83924 15.1131C2.87899 14.8401 2.68968 14.5854 2.41641 14.5442C2.14314 14.5031 1.88939 14.6912 1.84964 14.9642L2.83924 15.1131ZM1.11296 23.4988L0.618165 23.4243C0.614257 23.4512 0.612543 23.4783 0.613042 23.5054L1.11296 23.4988ZM3.73333 27.2916L3.66516 27.7865C3.68858 27.7899 3.7122 27.7916 3.73584 27.7916L3.73333 27.2916ZM10.3145 27.7916C10.5906 27.7916 10.8133 27.5677 10.812 27.2916C10.8106 27.0154 10.5856 26.7916 10.3094 26.7916L10.3145 27.7916ZM2.34445 25.329C2.77061 25.5927 2.77059 25.5927 2.77061 25.5927C2.77068 25.5926 2.77074 25.5925 2.77088 25.5923C2.77114 25.5918 2.77159 25.5911 2.77221 25.5901C2.77344 25.5881 2.77538 25.585 2.77802 25.5807C2.78329 25.5722 2.79136 25.5593 2.80219 25.542C2.82384 25.5075 2.85655 25.4556 2.90008 25.3874C2.98712 25.2511 3.11742 25.0497 3.28908 24.7914C3.63243 24.2746 4.14112 23.5305 4.80007 22.6247C6.11836 20.8126 8.03602 18.3564 10.4324 15.7806C15.2375 10.6158 21.9134 5.02963 29.4962 3.12685L29.2482 2.15686C21.3835 4.13039 14.5455 9.88778 9.69862 15.0975C7.26898 17.709 5.32612 20.1977 3.99038 22.0338C3.32232 22.9521 2.80562 23.7079 2.45533 24.235C2.28018 24.4986 2.14659 24.7051 2.05647 24.8462C2.0114 24.9168 1.9772 24.971 1.95409 25.0079C1.94254 25.0263 1.93376 25.0404 1.92778 25.0501C1.9248 25.0549 1.92251 25.0586 1.92093 25.0611C1.92013 25.0624 1.91952 25.0634 1.91908 25.0641C1.91886 25.0645 1.91866 25.0648 1.91855 25.065C1.9184 25.0652 1.91829 25.0654 2.34445 25.329ZM29.4962 3.12685C44.8101 -0.71595 54.1633 3.28169 56.4682 4.59967L56.9613 3.7322C54.4467 2.29432 44.8292 -1.75294 29.2482 2.15686L29.4962 3.12685ZM1.84964 14.9642L0.618165 23.4243L1.60776 23.5732L2.83924 15.1131L1.84964 14.9642ZM0.613042 23.5054C0.651429 25.5943 1.86033 27.5291 3.66516 27.7865L3.8015 26.7966C2.67904 26.6365 1.64637 25.3143 1.61289 23.4921L0.613042 23.5054ZM3.73584 27.7916H10.3145L10.3094 26.7916H3.73082L3.73584 27.7916Z" fill="#BBBBBB"/>
</svg>
