<svg width="56" height="56" viewBox="0 0 56 56" fill="none" xmlns="http://www.w3.org/2000/svg">
<rect x="4" y="4" width="48" height="48" rx="24" fill="#DCF3FF"/>
<path d="M29 18L20.0935 28.6879C19.7446 29.1064 19.5702 29.3157 19.5676 29.4925C19.5653 29.6461 19.6337 29.7923 19.7533 29.8889C19.8907 30 20.1632 30 20.708 30H28L27 38L35.9065 27.3121C36.2554 26.8936 36.4298 26.6843 36.4324 26.5075C36.4347 26.3539 36.3663 26.2077 36.2467 26.1111C36.1093 26 35.8368 26 35.292 26H28L29 18Z" stroke="#3D81DB" stroke-width="2" stroke-linecap="round" stroke-linejoin="round"/>
<rect x="4" y="4" width="48" height="48" rx="24" stroke="#EBF8FF" stroke-width="8"/>
</svg>
