<svg width="49" height="48" viewBox="0 0 49 48" fill="none" xmlns="http://www.w3.org/2000/svg">
<rect x="0.666687" width="48" height="48" rx="10" fill="#54A6FF"/>
<path d="M23.6667 15H20.4667C18.7865 15 17.9465 15 17.3047 15.327C16.7402 15.6146 16.2813 16.0735 15.9937 16.638C15.6667 17.2798 15.6667 18.1198 15.6667 19.8V28.2C15.6667 29.8802 15.6667 30.7202 15.9937 31.362C16.2813 31.9265 16.7402 32.3854 17.3047 32.673C17.9465 33 18.7865 33 20.4667 33H28.8667C30.5468 33 31.3869 33 32.0287 32.673C32.5931 32.3854 33.0521 31.9265 33.3397 31.362C33.6667 30.7202 33.6667 29.8802 33.6667 28.2V25M24.6667 20H28.6667V24M28.1667 15.5V14M32.106 16.5607L33.1667 15.5M33.1769 20.5H34.6769M15.6667 25.3471C16.3186 25.4478 16.9866 25.5 17.6667 25.5C22.053 25.5 25.932 23.3276 28.2864 20" stroke="white" stroke-width="2" stroke-linecap="round" stroke-linejoin="round"/>
</svg>
