<svg width="66" height="66" viewBox="0 0 66 66" fill="none" xmlns="http://www.w3.org/2000/svg">
<rect x="5" y="5" width="56" height="56" rx="28" fill="#DCF3FF"/>
<path d="M29.5 39.4167H23.0833M26.5833 33H21.3333M29.5 26.5833H23.6666M38.8333 22.5L31.1375 33.2742C30.7968 33.7511 30.6265 33.9895 30.6339 34.1883C30.6403 34.3614 30.7233 34.5226 30.8604 34.6285C31.0179 34.75 31.3109 34.75 31.897 34.75H37.6666L36.5 43.5L44.1958 32.7258C44.5364 32.2489 44.7068 32.0105 44.6994 31.8117C44.693 31.6386 44.61 31.4774 44.4729 31.3715C44.3154 31.25 44.0224 31.25 43.4363 31.25H37.6666L38.8333 22.5Z" stroke="#3D81DB" stroke-width="2" stroke-linecap="round" stroke-linejoin="round"/>
<rect x="5" y="5" width="56" height="56" rx="28" stroke="#EBF8FF" stroke-width="10"/>
</svg>
